:FULLY-SPECIFIED
:FORCE-ALL-JOINTS-BE-3DOF
:DEGREES
29
root 0.399751 17.2339 -21.1851 4.6241 -7.3509 -3.87003
lfemur -21.9791 11.421 -12.1606
ltibia 99.0879 -0 0
lfoot 8.58572 -3.47661 -0.278653
ltoes -9.04129 0 0
rfemur -20.8465 3.33793 28.9541
rtibia 55.0646 -0 0
rfoot -11.3171 -6.07733 0.0711707
rtoes -6.56676 0 0
lowerback 18.7067 -0.92514 2.25824
upperback 2.03684 -0.659827 1.3771
thorax -8.23765 -0.364018 0.377497
lowerneck -1.35317 2.40103 0.532013
upperneck -16.2286 2.92491 -2.43302
head -4.6492 1.52795 -0.918486
lclavicle -1.46107e-14 1.03368e-14 0
lhumerus -39.7747 -14.072 94.3316
lradius 106.467 -0 0
lwrist 32.6474 0 0
lhand -39.1872 13.0006 -0.0144947
lfingers 7.12502 -0 0
lthumb -12.1841 42.6244 -0.0137234
rclavicle -1.46107e-14 1.03368e-14 0
rhumerus -35.9928 12.0718 -88.6501
rradius 97.4349 -0 0
rwrist -2.56398 0 0
rhand -45.7942 38.7068 -0.0162864
rfingers 7.12502 -0 0
rthumb -18.5468 9.58147 -0.0186311
30
root 0.41075 17.2383 -20.6479 4.62415 -7.67171 -4.06879
lfemur -22.4566 11.929 -11.6858
ltibia 101.042 -0 0
lfoot 9.511 -3.61677 -0.253302
ltoes -8.98331 0 0
rfemur -20.2283 3.49206 29.4024
rtibia 53.2592 -0 0
rfoot -12.0997 -6.10895 0.0664931
rtoes -7.02233 0 0
lowerback 18.6847 -0.912168 2.50515
upperback 2.05475 -0.582902 1.49578
thorax -8.2118 -0.333814 0.345262
lowerneck -1.3071 2.48309 0.593098
upperneck -16.3327 3.00609 -2.65466
head -4.67664 1.57646 -1.00263
lclavicle -1.46107e-14 1.03368e-14 0
lhumerus -40.7797 -13.7344 94.6448
lradius 106.194 -0 0
lwrist 32.8274 0 0
lhand -39.2512 13.1542 -0.0123939
lfingers 7.12502 -0 0
lthumb -12.2458 42.7746 -0.0117434
rclavicle -1.46107e-14 1.03368e-14 0
rhumerus -35.3362 12.1885 -88.6299
rradius 97.9829 -0 0
rwrist -2.61755 0 0
rhand -45.6762 38.6464 -0.0152215
rfingers 7.12502 -0 0
rthumb -18.4334 9.50959 -0.0174129
31
root 0.421749 17.2426 -20.1106 4.62179 -7.97398 -4.25607
lfemur -22.912 12.4133 -11.2398
ltibia 102.893 -0 0
lfoot 10.39 -3.75005 -0.226912
ltoes -8.93179 0 0
rfemur -19.6255 3.626 29.8293
rtibia 51.5469 -0 0
rfoot -12.8336 -6.13979 0.0614177
rtoes -7.442 0 0
lowerback 18.663 -0.899426 2.73891
upperback 2.07281 -0.509634 1.60788
thorax -8.18583 -0.30501 0.31429
lowerneck -1.266 2.56024 0.650388
upperneck -16.4287 3.08197 -2.86431
head -4.70125 1.62206 -1.08219
lclavicle -1.46107e-14 1.03368e-14 0
lhumerus -41.7386 -13.4045 94.9356
lradius 105.931 -0 0
lwrist 32.9993 0 0
lhand -39.311 13.2993 -0.0102946
lfingers 7.12502 -0 0
lthumb -12.3035 42.9165 -0.00976425
rclavicle -1.46107e-14 1.03368e-14 0
rhumerus -34.7089 12.2971 -88.6071
rradius 98.5009 -0 0
rwrist -2.66692 0 0
rhand -45.5613 38.5877 -0.0140653
rfingers 7.12502 -0 0
rthumb -18.3229 9.43965 -0.0160904
32
root 0.432748 17.247 -19.5734 4.6166 -8.25606 -4.43075
lfemur -23.3441 12.8706 -10.8243
ltibia 104.63 -0 0
lfoot 11.2184 -3.87588 -0.199927
ltoes -8.88724 0 0
rfemur -19.0402 3.73906 30.2321
rtibia 49.9364 -0 0
rfoot -13.5144 -6.16975 0.0560097
rtoes -7.82276 0 0
lowerback 18.6416 -0.886961 2.9583
upperback 2.09099 -0.440365 1.7128
thorax -8.15977 -0.277744 0.284708
lowerneck -1.23028 2.63205 0.703524
upperneck -16.5159 3.15217 -3.06081
head -4.7228 1.66449 -1.15672
lclavicle -1.46107e-14 1.03368e-14 0
lhumerus -42.6474 -13.0847 95.2035
lradius 105.677 -0 0
lwrist 33.1623 0 0
lhand -39.3664 13.4349 -0.00824149
lfingers 7.12502 -0 0
lthumb -12.357 43.0491 -0.00782792
rclavicle -1.46107e-14 1.03368e-14 0
rhumerus -34.1137 12.3968 -88.5819
rradius 98.9863 -0 0
rwrist -2.71174 0 0
rhand -45.45 38.5307 -0.012832
rfingers 7.12502 -0 0
rthumb -18.2159 9.37187 -0.0146796
33
root 0.443747 17.2514 -19.0361 4.60814 -8.51629 -4.59176
lfemur -23.7516 13.2979 -10.4411
ltibia 106.245 -0 0
lfoot 11.9918 -3.99367 -0.172811
ltoes -8.85018 0 0
rfemur -18.4746 3.83061 30.6085
rtibia 48.4365 -0 0
rfoot -14.1377 -6.19876 0.0503387
rtoes -8.16157 0 0
lowerback 18.6207 -0.874823 3.16212
upperback 2.10922 -0.375439 1.80995
thorax -8.13363 -0.252151 0.256641
lowerneck -1.20036 2.69809 0.752149
upperneck -16.5936 3.21635 -3.24303
head -4.74105 1.70351 -1.2258
lclavicle -1.46107e-14 1.03368e-14 0
lhumerus -43.5026 -12.7769 95.4478
lradius 105.435 -0 0
lwrist 33.3156 0 0
lhand -39.417 13.5604 -0.0062804
lfingers 7.12502 -0 0
lthumb -12.4057 43.1719 -0.00597755
rclavicle -1.46107e-14 1.03368e-14 0
rhumerus -33.5535 12.487 -88.5547
rradius 99.4364 -0 0
rwrist -2.75165 0 0
rhand -45.3426 38.4758 -0.0115368
rfingers 7.12502 -0 0
rthumb -18.1126 9.30649 -0.0131979
34
root 0.454746 17.2558 -18.4989 4.59597 -8.753 -4.738
lfemur -24.1331 13.6921 -10.0921
ltibia 107.728 -0 0
lfoot 12.706 -4.10286 -0.146039
ltoes -8.82111 0 0
rfemur -17.9311 3.90009 30.9558
rtibia 47.0557 -0 0
rfoot -14.6993 -6.22672 0.0444776
rtoes -8.45544 0 0
lowerback 18.6001 -0.863065 3.34915
upperback 2.12746 -0.315196 1.89871
thorax -8.10743 -0.228369 0.230216
lowerneck -1.17665 2.75795 0.795906
upperneck -16.6611 3.27415 -3.40982
head -4.75574 1.73887 -1.289
lclavicle -1.46107e-14 1.03368e-14 0
lhumerus -44.3004 -12.4835 95.6679
lradius 105.206 -0 0
lwrist 33.4583 0 0
lhand -39.4623 13.6749 -0.00445764
lfingers 7.12502 -0 0
lthumb -12.4494 43.2839 -0.00425674
rclavicle -1.46107e-14 1.03368e-14 0
rhumerus -33.0313 12.567 -88.5254
rradius 99.8483 -0 0
rwrist -2.78631 0 0
rhand -45.2394 38.423 -0.0101959
rfingers 7.12502 -0 0
rthumb -18.0135 9.24373 -0.0116641
35
root 0.465745 17.2602 -17.9616 4.57965 -8.96454 -4.86837
lfemur -24.4875 14.0499 -9.77907
ltibia 109.07 -0 0
lfoot 13.3565 -4.2029 -0.120092
ltoes -8.80055 0 0
rfemur -17.4119 3.94696 31.2715
rtibia 45.8027 -0 0
rfoot -15.1949 -6.25357 0.0385025
rtoes -8.70135 0 0
lowerback 18.5801 -0.851736 3.51818
upperback 2.14567 -0.259979 1.97849
thorax -8.08121 -0.206534 0.205558
lowerneck -1.15957 2.81119 0.834438
upperneck -16.7175 3.32521 -3.56003
head -4.76664 1.77033 -1.34589
lclavicle -1.46107e-14 1.03368e-14 0
lhumerus -45.037 -12.2066 95.8634
lradius 104.989 -0 0
lwrist 33.5898 0 0
lhand -39.502 13.7776 -0.00281937
lfingers 7.12502 -0 0
lthumb -12.4878 43.3845 -0.00270897
rclavicle -1.46107e-14 1.03368e-14 0
rhumerus -32.55 12.636 -88.4945
rradius 100.219 -0 0
rwrist -2.81537 0 0
rhand -45.141 38.3727 -0.00882645
rfingers 7.12502 -0 0
rthumb -17.9188 9.18381 -0.0100975
36
root 0.476744 17.2645 -17.4244 4.55874 -9.14924 -4.98178
lfemur -24.8133 14.3683 -9.50378
ltibia 110.26 -0 0
lfoot 13.9391 -4.29324 -0.0954513
ltoes -8.789 0 0
rfemur -16.9191 3.97071 31.553
rtibia 44.6863 -0 0
rfoot -15.62 -6.27921 0.032491
rtoes -8.89628 0 0
lowerback 18.5605 -0.84089 3.668
upperback 2.16377 -0.210129 2.04868
thorax -8.05499 -0.186784 0.182793
lowerneck -1.14954 2.8574 0.867389
upperneck -16.762 3.36918 -3.69252
head -4.7735 1.79762 -1.39604
lclavicle -1.46107e-14 1.03368e-14 0
lhumerus -45.7088 -11.9484 96.0336
lradius 104.787 -0 0
lwrist 33.7092 0 0
lhand -39.5359 13.8679 -0.00141085
lfingers 7.12502 -0 0
lthumb -12.5204 43.4729 -0.00137684
rclavicle -1.46107e-14 1.03368e-14 0
rhumerus -32.1124 12.6935 -88.462
rradius 100.547 -0 0
rwrist -2.84025 0 0
rhand -45.0475 38.3249 -0.00744648
rfingers 7.12502 -0 0
rthumb -17.8289 9.12697 -0.00851891
37
root 0.487743 17.2689 -16.8871 4.53281 -9.30544 -5.07714
lfemur -25.1093 14.6441 -9.26805
ltibia 111.289 -0 0
lfoot 14.4494 -4.37334 -0.072588
ltoes -8.78698 0 0
rfemur -16.4551 3.97085 31.7979
rtibia 43.7151 -0 0
rfoot -15.9705 -6.30358 0.0265218
rtoes -9.03721 0 0
lowerback 18.5415 -0.83058 3.7974
upperback 2.18174 -0.165985 2.10867
thorax -8.02878 -0.169254 0.162047
lowerneck -1.14698 2.89614 0.894406
upperneck -16.7941 3.40568 -3.80614
head -4.77609 1.8205 -1.43903
lclavicle -1.46107e-14 1.03368e-14 0
lhumerus -46.312 -11.7109 96.1783
lradius 104.6 -0 0
lwrist 33.8158 0 0
lhand -39.5634 13.9448 -0.000275655
lfingers 7.12502 -0 0
lthumb -12.5469 43.5482 -0.000301414
rclavicle -1.46107e-14 1.03368e-14 0
rhumerus -31.7215 12.7387 -88.4281
rradius 100.828 -0 0
rwrist -2.85523 0 0
rhand -44.9594 38.28 -0.00607444
rfingers 7.12502 -0 0
rthumb -17.7443 9.07343 -0.00694933
38
root 0.498742 17.2733 -16.3499 4.50146 -9.43146 -5.15339
lfemur -25.374 14.8743 -9.07371
ltibia 112.148 -0 0
lfoot 14.8831 -4.44268 -0.0519602
ltoes -8.79499 0 0
rfemur -16.0218 3.9469 32.0036
rtibia 42.8977 -0 0
rfoot -16.2419 -6.32659 0.0206734
rtoes -9.12114 0 0
lowerback 18.523 -0.820858 3.90516
upperback 2.19951 -0.127889 2.15786
thorax -8.00262 -0.154083 0.143446
lowerneck -1.15229 2.92699 0.915137
upperneck -16.8128 3.43434 -3.89977
head -4.77415 1.83873 -1.47444
lclavicle -1.46107e-14 1.03368e-14 0
lhumerus -46.8429 -11.4963 96.2968
lradius 104.43 -0 0
lwrist 33.9087 0 0
lhand -39.5843 14.0076 0.000545123
lfingers 7.12502 -0 0
lthumb -12.5671 43.6099 0.000478617
rclavicle -1.46107e-14 1.03368e-14 0
rhumerus -31.3803 12.7711 -88.3931
rradius 101.06 -0 0
rwrist -2.86534 0 0
rhand -44.8771 38.238 -0.00472927
rfingers 7.12502 -0 0
rthumb -17.6651 9.02342 -0.00541048
39
root 0.509741 17.2777 -15.8126 4.46429 -9.52562 -5.20944
lfemur -25.6061 15.0558 -8.92259
ltibia 112.827 -0 0
lfoot 15.2358 -4.5007 -0.034003
ltoes -8.81354 0 0
rfemur -15.6215 3.89836 32.1678
rtibia 42.2429 -0 0
rfoot -16.43 -6.34816 0.0150234
rtoes -9.14505 0 0
lowerback 18.5052 -0.81178 3.99007
upperback 2.21704 -0.0961802 2.19565
thorax -7.97652 -0.141408 0.127113
lowerneck -1.16589 2.9495 0.929233
upperneck -16.8175 3.45477 -3.97226
head -4.76745 1.85204 -1.50183
lclavicle -1.46107e-14 1.03368e-14 0
lhumerus -47.2978 -11.3066 96.3887
lradius 104.277 -0 0
lwrist 33.9871 0 0
lhand -39.5982 14.0555 0.00101377
lfingers 7.12502 -0 0
lthumb -12.5805 43.657 0.000927707
rclavicle -1.46107e-14 1.03368e-14 0
rhumerus -31.0917 12.7899 -88.3571
rradius 101.24 -0 0
rwrist -2.8679 0 0
rhand -44.801 38.1991 -0.00343015
rfingers 7.12502 -0 0
rthumb -17.5919 8.97716 -0.00392427
40
root 0.52074 17.282 -15.2754 4.42094 -9.58625 -5.24426
lfemur -25.804 15.1855 -8.81657
ltibia 113.317 -0 0
lfoot 15.5033 -4.54688 -0.0191211
ltoes -8.84315 0 0
rfemur -15.2562 3.82471 32.2879
rtibia 41.7592 -0 0
rfoot -16.5304 -6.36823 0.0096472
rtoes -9.10591 0 0
lowerback 18.4881 -0.803397 4.05092
upperback 2.23428 -0.0711978 2.22142
thorax -7.95051 -0.131366 0.113175
lowerneck -1.18819 2.96326 0.93635
upperneck -16.8074 3.4666 -4.02249
head -4.75575 1.86018 -1.52077
lclavicle -1.46107e-14 1.03368e-14 0
lhumerus -47.6727 -11.1437 96.4534
lradius 104.142 -0 0
lwrist 34.0504 0 0
lhand -39.6047 14.0878 0.00109685
lfingers 7.12502 -0 0
lthumb -12.5868 43.6888 0.00101435
rclavicle -1.46107e-14 1.03368e-14 0
rhumerus -30.8585 12.7946 -88.3201
rradius 101.366 -0 0
rwrist -2.86415 0 0
rhand -44.7313 38.1636 -0.00219627
rfingers 7.12502 -0 0
rthumb -17.5249 8.93488 -0.00251268
